<svg width="12" height="12" viewBox="0 0 12 12" fill="none" xmlns="http://www.w3.org/2000/svg">
<path d="M8.8421 10.8758H1.26316V3.15789H5.68421V1.89474H1.26316C0.568421 1.89474 0 2.46316 0 3.15789V10.7368C0 11.4316 0.568421 12 1.26316 12H8.8421C9.53684 12 10.1053 11.4316 10.1053 10.7368V6.31579H8.8421V10.8758Z" fill="#364257"/>
<path d="M10.1053 0H8.8421V1.89474H6.94737C6.95368 1.90105 6.94737 3.15789 6.94737 3.15789H8.8421V5.04632C8.84842 5.05263 10.1053 5.04632 10.1053 5.04632V3.15789H12V1.89474H10.1053V0ZM2.52632 4.42105H7.57895V5.68421H2.52632V4.42105ZM2.52632 6.31579V7.57895H7.57895V6.31579H2.52632ZM2.52632 8.21053H7.57895V9.47368H2.52632V8.21053Z" fill="#364257"/>
</svg>
