<svg width="12" height="13" viewBox="0 0 12 13" fill="none" xmlns="http://www.w3.org/2000/svg">
<path d="M9.81818 0.909058L7.09091 3.63633V9.63633L9.81818 7.18179V0.909058ZM0 3.63633V11.6272C0 11.7636 0.136364 11.9 0.272727 11.9C0.327273 11.9 0.354545 11.8727 0.409091 11.8727C1.14545 11.5181 2.20909 11.2727 3 11.2727C4.06364 11.2727 5.20909 11.4909 6 12.0909V3.63633C5.20909 3.03633 4.06364 2.81815 3 2.81815C1.93636 2.81815 0.790909 3.03633 0 3.63633ZM12 11V3.63633C11.6727 3.39088 11.3182 3.22724 10.9091 3.09088V10.4545C10.3091 10.2636 9.65455 10.1818 9 10.1818C8.07273 10.1818 6.73636 10.5363 6 11V12.0909C6.73636 11.6272 8.07273 11.2727 9 11.2727C9.9 11.2727 10.8273 11.4363 11.5909 11.8454C11.6455 11.8727 11.6727 11.8727 11.7273 11.8727C11.8636 11.8727 12 11.7363 12 11.6V11Z" fill="#30394A"/>
</svg>
