<svg width="20" height="20" viewBox="0 0 20 20" fill="none" xmlns="http://www.w3.org/2000/svg">
<path d="M15.5134 3.46802H14.6969V1.83502H13.0639V3.46802H6.53198V1.83502H4.89898V3.46802H4.08249C3.17618 3.46802 2.45766 4.20286 2.45766 5.10101L2.44949 16.532C2.44949 17.4301 3.17618 18.165 4.08249 18.165H15.5134C16.4116 18.165 17.1464 17.4301 17.1464 16.532V5.10101C17.1464 4.20286 16.4116 3.46802 15.5134 3.46802ZM15.5134 16.532H4.08249V8.36699H15.5134V16.532ZM15.5134 6.734H4.08249V5.10101H15.5134V6.734ZM7.34847 11.633H5.71548V9.99999H7.34847V11.633ZM10.6145 11.633H8.98147V9.99999H10.6145V11.633ZM13.8804 11.633H12.2475V9.99999H13.8804V11.633ZM7.34847 14.899H5.71548V13.266H7.34847V14.899ZM10.6145 14.899H8.98147V13.266H10.6145V14.899ZM13.8804 14.899H12.2475V13.266H13.8804V14.899Z" fill="#3D4C67"/>
</svg>
