<svg width="19" height="18" viewBox="0 0 19 18" fill="none" xmlns="http://www.w3.org/2000/svg">
<rect x="1" y="0.5" width="17" height="17" rx="8.5" fill="#0C4D88"/>
<rect x="1" y="0.5" width="17" height="17" rx="8.5" stroke="white"/>
<g clip-path="url(#clip0_3104_1900)">
<path d="M10.4834 5.6996L10.8696 5.3134C11.5095 4.67353 12.5469 4.67353 13.1868 5.3134C13.8267 5.95328 13.8267 6.99073 13.1868 7.6306L12.8006 8.0168M10.4834 5.6996C10.4834 5.6996 10.5317 6.52028 11.2558 7.2444C11.9799 7.96853 12.8006 8.0168 12.8006 8.0168M10.4834 5.6996L6.93288 9.25012C6.6924 9.4906 6.57216 9.61085 6.46875 9.74343C6.34676 9.89982 6.24218 10.069 6.15685 10.2481C6.08451 10.3999 6.03074 10.5612 5.92319 10.8838L5.46746 12.251M12.8006 8.0168L9.25008 11.5673C9.0096 11.8078 8.88936 11.928 8.75678 12.0315C8.60038 12.1534 8.43116 12.258 8.25211 12.3434C8.10033 12.4157 7.93901 12.4695 7.61637 12.577L6.24917 13.0327M6.24917 13.0327L5.91497 13.1441C5.7562 13.1971 5.58115 13.1557 5.4628 13.0374C5.34446 12.9191 5.30314 12.744 5.35606 12.5852L5.46746 12.251M6.24917 13.0327L5.46746 12.251" stroke="white"/>
</g>
<defs>
<clipPath id="clip0_3104_1900">
<rect width="10" height="10" fill="white" transform="translate(4.5 4)"/>
</clipPath>
</defs>
</svg>
