<svg width="16" height="17" viewBox="0 0 16 17" fill="none" xmlns="http://www.w3.org/2000/svg">
<path d="M9.15523 2.37688L10.3286 4.72354C10.4886 5.05021 10.9152 5.36354 11.2752 5.42354L13.4019 5.77687C14.7619 6.00354 15.0819 6.99021 14.1019 7.96354L12.4486 9.61687C12.1686 9.89687 12.0152 10.4369 12.1019 10.8235L12.5752 12.8702C12.9486 14.4902 12.0886 15.1169 10.6552 14.2702L8.66189 13.0902C8.30189 12.8769 7.70856 12.8769 7.34189 13.0902L5.34856 14.2702C3.92189 15.1169 3.05523 14.4835 3.42856 12.8702L3.90189 10.8235C3.98856 10.4369 3.83523 9.89687 3.55523 9.61687L1.90189 7.96354C0.928559 6.99021 1.24189 6.00354 2.60189 5.77687L4.72856 5.42354C5.08189 5.36354 5.50856 5.05021 5.66856 4.72354L6.84189 2.37688C7.48189 1.10354 8.52189 1.10354 9.15523 2.37688Z" stroke="#F8F8F9" stroke-width="1.5" stroke-linecap="round" stroke-linejoin="round"/>
</svg>
